<?xml version="1.0" encoding="UTF-8" standalone="no"?>
<svg
   xmlns:dc="http://purl.org/dc/elements/1.1/"
   xmlns:cc="http://creativecommons.org/ns#"
   xmlns:rdf="http://www.w3.org/1999/02/22-rdf-syntax-ns#"
   xmlns:svg="http://www.w3.org/2000/svg"
   xmlns="http://www.w3.org/2000/svg"
   xmlns:xlink="http://www.w3.org/1999/xlink"
   xmlns:sodipodi="http://sodipodi.sourceforge.net/DTD/sodipodi-0.dtd"
   xmlns:inkscape="http://www.inkscape.org/namespaces/inkscape"
   inkscape:version="1.0 (4035a4fb49, 2020-05-01)"
   sodipodi:docname="Fixed Khonjin.svg"
   id="svg105"
   viewBox="0 0 2015 3279.8703"
   height="3279.8704"
   width="2015"
   y="0px"
   x="0px"
   preserveAspectRatio="none"
   version="1.1">
  <metadata
     id="metadata109">
    <rdf:RDF>
      <cc:Work
         rdf:about="">
        <dc:format>image/svg+xml</dc:format>
        <dc:type
           rdf:resource="http://purl.org/dc/dcmitype/StillImage" />
        <dc:title></dc:title>
      </cc:Work>
    </rdf:RDF>
  </metadata>
  <sodipodi:namedview
     inkscape:current-layer="layer2"
     inkscape:window-maximized="1"
     inkscape:window-y="-9"
     inkscape:window-x="-9"
     inkscape:cy="1694.8605"
     inkscape:cx="751.81907"
     inkscape:zoom="0.22244401"
     fit-margin-bottom="0"
     fit-margin-right="0"
     fit-margin-left="0"
     fit-margin-top="0"
     showgrid="false"
     id="namedview107"
     inkscape:window-height="1001"
     inkscape:window-width="1920"
     inkscape:pageshadow="2"
     inkscape:pageopacity="0"
     guidetolerance="10"
     gridtolerance="10"
     objecttolerance="10"
     borderopacity="1"
     bordercolor="#666666"
     pagecolor="#ffffff" />
  <defs
     id="defs51">
    <g
       id="CHARACTERS_KhonjinFolder_khonjin_body_0_Layer0_0_FILL">
      <path
         id="path2"
         d="m 167.95,207.75 -1.2,0.25 1.3,-0.25 q -0.0357,-7.8e-4 -0.1,0 m -31.5,-10.45 q -0.0928,0.14434 -0.2,0.3 -0.5793,1.14043 -0.7,2.9 -0.0129,0.16094 -0.05,0.3 l 1.1,-3.5 h -0.15 m -26.6,0.3 q 0,-0.15 0.05,-0.3 h -4.75 q 0,0.15 0,0.3 h 4.7 m -90.85,0 q 0.05,-0.15 0.1,-0.3 h -6.4 q 0,0.15 -0.05,0.3 H 19 M 38.25,0.3 h -5.9 Q 32.2,0.55 32.05,0.85 29.5,7.45 28.1,10 q -3.05,5.45 -4.55,8.65 -2.85,6.05 -2.85,9.05 0,0.9 0.8,4.6 0.8,3.7 0.8,5.3 v 10.2 q 0,7.2 0.8,21.3 0,6.45 -0.45,24.9 -0.6,25.95 -1.55,39.6 -0.4,6.45 -2,16.2 -2.45,15.1 -2.6,16.2 l -2.4,16.2 v 7.8 q 0,1.65 -0.8,4.75 -0.4,1.55 -0.6,2.55 h 6.4 q 0.05,-0.5 0.15,-1.1 0.05,-0.6 0.05,-7.2 0,-2.65 0.75,-7.1 0.75,-4.9 0.85,-6.7 0.35,-5.65 1.8,-14.45 1.6,-9.5 2.2,-13.75 0.5,-3.7 1.85,-27 Q 28.1,96.3 28.1,90.9 28.1,69.6 27.9,59.4 27.85,56.95 27.45,51.3 27.1,46.1 27.1,43.2 v -7.8 q 0,-1.6 -0.8,-4.7 -0.8,-3.1 -0.8,-4 0,-0.75 6.2,-13.45 Q 35.7,5 38.25,0.3 M 32.5,0 q -0.1,0.15 -0.15,0.3 h 5.9 Q 38.35,0.15 38.45,0 H 32.5 M 98.25,0.3 Q 98.15,0.15 98.05,0 H 91.3 q 0.1,0.15 0.2,0.3 h 6.75 M 109.3,18.55 Q 104.1,9.65 103.9,9.2 100.3,3.3 98.25,0.3 H 91.5 q 2.15,4 7.1,11.5 8.9,13.55 8.9,15.9 0,1.6 -0.4,4.6 -0.45,3.15 -1,5.3 v 46.2 l -0.2,0.6 v 96 q -0.4,4.25 -0.6,11.5 -0.1,3.15 -0.15,5.4 h 4.75 q 1.25,-8.1 1.6,-29.05 0,-34.6 0,-35.45 l -0.2,-93 q 0.6,-3.15 1.1,-6.95 0.5,-3.85 0.5,-5.35 0,-2.8 -3.6,-8.95 m 88.3,168.7 v 0.05 q -0.25,4.6 -6,10.8 -3.43887,3.70586 -5.85,5.2 1.85918,-1.0043 3.8,-2.25 10.25,-6.55 10.25,-10.2 -0.3,-2.35 -1.8,-3.6 -0.20391,0 -0.4,0 m -4.5,-4.5 q 0.7,-0.8 0.7,-3.65 0,-3.3 -1.75,-3.65 -0.32246,-0.0748 -0.75,-0.1 0.7793,0.33457 1.3,0.95 2.75,3.25 -8.85,10.45 -5.8,3.6 -12.15,6.55 l 13.15,-5.55 q 1.89375,-0.67949 3.5,-1.2 4.53223,-3.39141 4.85,-3.8 m -21.2,0.15 h -0.05 q -0.11133,0.20781 -0.25,0.4 l 6.15,-3.8 q -2.73574,1.33555 -5.85,3.4 m -2.35,12.45 q 1.5,-1.85 1.5,-4.05 0,-0.95 -0.05,-1.15 -0.2,-0.65 -1.15,-1.35 -0.9,-0.35 -1.85,0.15 -0.85,0.45 -1,1.1 -0.25,1.85 -0.5,2.3 -0.25,0.5 -1.9,2.45 -2.1,2.9 -3.7,4.55 -3.8,4 -6.5,4 -1.45,0 -3.95,-0.85 -2.5,-0.85 -3.15,-0.85 -2.75,0 -2.75,2.1 0,1.9 3.05,2.1 0.35,0.05 2.05,0.85 2,0.8 3.8,0.8 4.65,0 9.2,-3.8 3.6,-3.75 3.6,-3.8 0.75,-1.4 3.3,-4.55 z"
         stroke="none"
         fill="#cccccc" />
      <path
         id="path4"
         d="m 109.9,197.3 q -0.05,0.15 -0.05,0.3 h 26.4 q 0.10723,-0.15566 0.2,-0.3 H 109.9 M 0,197.3 v 0.3 h 12.65 q 0.05,-0.15 0.05,-0.3 H 0 M 32.05,0.85 Q 32.2,0.55 32.35,0.3 H 0 v 197 h 12.7 q 0.2,-1 0.6,-2.55 0.8,-3.1 0.8,-4.75 v -7.8 L 16.5,166 q 0.15,-1.1 2.6,-16.2 1.6,-9.75 2,-16.2 Q 22.05,119.95 22.65,94 23.1,75.55 23.1,69.1 22.3,55 22.3,47.8 V 37.6 q 0,-1.6 -0.8,-5.3 -0.8,-3.7 -0.8,-4.6 0,-3 2.85,-9.05 1.5,-3.2 4.55,-8.65 1.4,-2.55 3.95,-9.15 M 32.35,0.3 Q 32.4,0.15 32.5,0 H 0 V 0.3 H 32.35 M 98.05,0 q 0.1,0.15 0.2,0.3 h 45.9 q -2.21719,-1.23867188 -3.4,-0.3 h -42.7 m 47.05,0.3 q 9.20625,10.229492 16.8,18.85 -0.29297,-0.496875 -0.65,-1.1 -1.4,-2.3 -2,-3 -3.3,-3.7 -5.95,-6.3 -3.86426,-4.1982422 -8.2,-8.45 m 39.25,45.45 q -4.27559,-5.287109 -8.6,-10.45 -0.5043,-0.558594 -1.05,-1.15 -7.9,-8.55 -11.2,-12.65 -0.60313,-0.753906 -1.6,-2.35 -7.59375,-8.620508 -16.8,-18.85 1.47852,1.7601563 1.35,1.65 -1.26797,-1.06660156 -2.3,-1.65 h -45.9 q 2.05,3 5.65,8.9 0.2,0.45 5.4,9.35 3.6,6.15 3.6,8.95 0,1.5 -0.5,5.35 -0.5,3.8 -1.1,6.95 l 0.2,93 q 0,0.85 0,35.45 -0.35,20.95 -1.6,29.05 h 26.55 q 0.71934,-1.13887 2,-1.6 0,0.11504 0,0.2 -0.05,0.8 0.35,1.3 l 0.3,0.05 0.25,-0.05 q 0.35,-0.55 0.35,-1.65 v -0.05 q 0.0744,0.003 0.15,0 l 1.15,-4.4 v -19.35 q 0.0504,0.0121 0.1,0 0.23242,-1.2207 1.55,-1.55 2.45,-0.6 9.65,1.1 1,0.65 4.1,2.45 2.75,1.65 3.4,2.25 2.4,2.05 4.9,4.55 v 0 q 0.28047,0.18301 0.55,0.35 1.30703,0.81328 1.85,1.55 1.75684,1.17812 2.35,2.15 0.93984,-0.69648 2.25,-1.6 1.81348,-3.32578 7.1,-11.5 2.9,-4.5 8.7,-12.3 2.4418,-3.29453 6.5,-8.8 21.79082,-33.63125 24.6,-46.1 2.9,-12.6 -34.25,-58.55 m -10.6,55.85 q 2.25,4.3416 2.25,7.05 0,1.74355 -0.55,3.8 -1.65742,10.80664 -16.55,29.05 -7.69199,9.40117 -15.6,17.2 -0.96152,1.10371 -2.3,2.6 v -0.4 q -0.1998,0.21074 -0.4,0.4 v -104 l 0.4,0.4 v -0.35 q 0.39512,0.353516 0.75,0.7 0.73203,0.732031 2.15,2.75 l 1.85,1.95 q 6.25,6.8 11.55,13.4 12.4375,15.400391 16.45,25.45 M 141,57.7 140.6,57.3 v 104 q 0.2002,-0.18926 0.4,-0.4 V 57.7 M 169,94 q 3.0502,4.291992 4.75,7.6 Q 169.7375,91.550391 157.3,76.15 152,69.55 145.75,62.75 L 143.9,60.8 q 0.25,0.339063 0.5,0.7 1.85,2.7 2.9,3.75 5.55,5.65 11.2,14.55 2.3,3.65 10.5,14.2 m 6.45,18.45 q -1.30703,5.28438 -6,12.7 -5.25,8.3 -11.7,15.1 -3.1,3.25 -6.45,7.8 -1.9,2.6 -5.75,7.95 -0.46973,0.63418 -2.25,2.7 7.90801,-7.79883 15.6,-17.2 14.89258,-18.24336 16.55,-29.05 m 0.3,-77.15 q 4.32441,5.162891 8.6,10.45 37.15,45.95 34.25,58.55 -2.80918,12.46875 -24.6,46.1 1.22363,-1.57383 2.55,-3.35 13.35,-18.4 17,-25.55 5.75,-11.2 5.75,-23.5 0,-9.55 -12.45,-26.3 -2,-2.65 -20.6,-24.7 -2.99082,-3.551563 -10.5,-11.7 z"
         stroke="none"
         fill="#666666" />
      <path
         id="path6"
         d="m 19.1,197.3 q -0.05,0.15 -0.1,0.3 h 86.15 q 0,-0.15 0,-0.3 H 19.1 M 48.7,0.3 Q 48.75,0.15 48.85,0 h -10.4 q -0.1,0.15 -0.2,0.3 H 48.7 M 98.6,11.8 Q 93.65,4.3 91.5,0.3 H 80.7 48.7 38.25 Q 35.7,5 31.7,13.25 q -6.2,12.7 -6.2,13.45 0,0.9 0.8,4 0.8,3.1 0.8,4.7 v 7.8 q 0,2.9 0.35,8.1 0.4,5.65 0.45,8.1 0.2,10.2 0.2,31.5 0,5.4 -1.35,29.1 -1.35,23.3 -1.85,27 -0.6,4.25 -2.2,13.75 -1.45,8.8 -1.8,14.45 -0.1,1.8 -0.85,6.7 -0.75,4.45 -0.75,7.1 0,6.6 -0.05,7.2 -0.1,0.6 -0.15,1.1 h 86.05 q 0.05,-2.25 0.15,-5.4 0.2,-7.25 0.6,-11.5 v -96 l 0.2,-0.6 V 37.6 q 0.55,-2.15 1,-5.3 0.4,-3 0.4,-4.6 0,-2.35 -8.9,-15.9 M 91.5,0.3 Q 91.4,0.15 91.3,0 H 80.55 q 0.05,0.15 0.15,0.3 h 10.8 m 88.55,178.2 q -1.11055,0.43516 -2.3,1 l -6.15,3.8 q 0.13867,-0.19219 0.25,-0.4 -0.0621,0.0734 -0.15,0.1 -1.31016,0.90352 -2.25,1.6 -0.59316,-0.97188 -2.35,-2.15 -0.54297,-0.73672 -1.85,-1.55 -0.26953,-0.16699 -0.55,-0.35 v 0 q -2.5,-2.5 -4.9,-4.55 -0.65,-0.6 -3.4,-2.25 -3.1,-1.8 -4.1,-2.45 -7.2,-1.7 -9.65,-1.1 -1.31758,0.3293 -1.55,1.55 -0.0496,0.0121 -0.1,0 v 19.35 l -1.15,4.4 q -0.0756,0.003 -0.15,0 v 0.05 q 0,1.1 -0.35,1.65 l -0.25,0.05 -0.3,-0.05 q -0.4,-0.5 -0.35,-1.3 0,-0.085 0,-0.2 -1.28066,0.46113 -2,1.6 h 0.15 l -1.1,3.5 q -0.10488,2.36738 0.55,4.8 0,0.1 -0.3,2.2 -0.15,2.5 0.3,4.55 0.3416,1.50762 1,2.65 1.99668,2.29805 5.95,2.7 2.95,0.3 5.6,-0.4 l -2,-11 5.4,5.25 q 5.58477,4.35293 11.15,5.4 0.55664,0.05 1.1,0.05 0.4,0 11.05,-0.4 6.66777,-0.86133 9.05,-3.1 0.20605,-1.52871 -4.75,-3.2 -7.62246,-2.55723 -11.55,-2.55 l -1.3,0.25 -1.15,0.3 1.15,-0.3 1.2,-0.25 q 0.0643,-7.8e-4 0.1,0 l 15.55,-3.45 q 0.42891,-0.0979 0.9,-0.3 0.62598,-0.32891 1.25,-0.7 2.41113,-1.49414 5.85,-5.2 5.75,-6.2 6,-10.8 v -0.05 q -2.84785,0.003 -3.55,0.05 -0.55,0.05 -0.55,0.2 -3.69902,0.39082 -7.7,0.9 0.69238,-0.49863 1.5,-1.1 0.50039,-0.37656 0.95,-0.75 -1.60625,0.52051 -3.5,1.2 l -13.15,5.55 q 6.35,-2.95 12.15,-6.55 11.6,-7.2 8.85,-10.45 -0.5207,-0.61543 -1.3,-0.95 -3.10957,-0.12383 -11.25,3.15 m -9,12.8 q 0,2.2 -1.5,4.05 -2.55,3.15 -3.3,4.55 0,0.05 -3.6,3.8 -4.55,3.8 -9.2,3.8 -1.8,0 -3.8,-0.8 -1.7,-0.8 -2.05,-0.85 -3.05,-0.2 -3.05,-2.1 0,-2.1 2.75,-2.1 0.65,0 3.15,0.85 2.5,0.85 3.95,0.85 2.7,0 6.5,-4 1.6,-1.65 3.7,-4.55 1.65,-1.95 1.9,-2.45 0.25,-0.45 0.5,-2.3 0.15,-0.65 1,-1.1 0.95,-0.5 1.85,-0.15 0.95,0.7 1.15,1.35 0.05,0.2 0.05,1.15 z"
         stroke="none"
         fill="#ffffff" />
    </g>
    <g
       id="CHARACTERS_KhonjinFolder_khonjin_tie_0_Layer0_0_FILL">
      <path
         id="path9"
         d="m 41,24 q 1.85,0 2.4,-1.4 0.4,-0.95 0.4,-3.6 0,-2.05 -3.25,-10.85 Q 38.55,2.7 37.25,0 H 5.55 Q 4.2,3.1 2.55,9.5 0,19.1 0,22.1 q 0,1.2 0.2,1.6 0.2,0.4 0.2,0.5 l 0.35,0.2 q 0.6,0.2 1.85,0.2 1.25,0 5.6,-1.5 1.6,-0.55 3.4,-0.9 0,0.05 0,0.1 0,9.2 -5.5,34.95 Q 0.6,83 0.6,84.4 q 0,0.15 8.6,43.2 9.5,43 13.8,43 1.2,0 1.85,-0.4 0.65,-0.4 0.75,-0.4 L 26,168 q -0.15,-0.55 -0.3,-1.15 1.25,-1.9 2.25,-6.45 0.2,-1.05 1.65,-10.2 0.7,-4.05 2.4,-9.85 1.95,-6.45 2.8,-9.35 3.9,-12.4 6.5,-20.75 4.9,-15.8 4.9,-17.95 0,-3.25 -2.8,-19.25 -2.95,-17.05 -3,-17.65 -0.3,-3.1 -1.2,-9.3 -1.25,-8 -1.4,-9.3 -0.2,-2 -1.6,-9 Q 36,26.05 35.9,25.2 35.8,24.4 35.6,23.8 38,24 41,24 Z"
         stroke="none"
         fill="#666666" />
    </g>
    <g
       id="CHARACTERS_KhonjinFolder_khonjin_head_0_Layer0_0_FILL">
      <path
         id="path12"
         d="m 109.75,208.1 -0.25,0.05 q -4.2,1 -10.95,2 -12.168945,1.85469 -23.65,2 2.98125,0.4 5.9,0.4 15.55,0 29.1,-4.2 -0.0838,-0.11172 -0.15,-0.25 M 11.2,140.55 q -2.8134766,-2.35664 -4.3,-6.6 0.031445,2.48379 0.3,3.2 0.75,2.15 4,3.4 m 2.5,1.6 q -1.358789,-0.6457 -2.5,-1.6 -0.05,0.25 -0.05,0.5 1.2,0.95 2.65,1.8 h 1.7 q -0.893945,-0.27285 -1.8,-0.7 M 7.35,107.2 q 0.049805,-0.14648 0.1,-0.3 -1.3101563,2.90566 -1.85,5.85 -0.5,2.8 -0.5,10.9 0,7.35 0.55,9.45 0.3,1.1 0.8,2.15 0.1322266,-0.85977 0.3,-1.75 -0.8976563,-2.78125 -1.25,-6.35 -1.1,-11.6 1.85,-19.95 m 19.1,3.15 q -0.05,-4.4 -1.05,-7.25 -0.01563,-0.0471 -0.05,-0.1 -0.39668,-0.34668 -0.9,-0.85 -2.25,-2.2 -2.75,-2.55 -0.889648,0.06777 -1.7,0.15 l -0.15,0.15 q -4.45,0.95 -5.3,1.45 -0.85,0.45 -1.55,1.1 -0.35,0.35 -0.9,0.35 -0.95,0 -0.95,-1 0,-0.46895 0.15,-0.75 -0.04707,0 -0.1,0 -0.1,0 -0.15,-0.1 H 11 q -2.1898437,2.95391 -3.55,5.95 -0.050195,0.15352 -0.1,0.3 -2.95,8.35 -1.85,19.95 0.3523437,3.56875 1.25,6.35 0.098438,-0.44277 0.2,-0.9 -0.05,0.5 -0.05,0.75 0,0.31445 0,0.6 1.4865234,4.24336 4.3,6.6 1.141211,0.9543 2.5,1.6 0.906055,0.42715 1.8,0.7 h 4.8 q 0,-0.05 0,-0.1 l 0.1,-0.1 q -0.2,-0.2 -0.2,-0.45 0,-0.6 1.1,-0.7 3.65,-7.2 4.55,-13.25 0.45,-3 0.45,-13 0.15,-2.6 0.15,-4.9 m 137.75,40.4 q 0.3,-1.1 0.6,-2.1 -0.3,0.1 -0.8,0.1 -0.7,0 -1.05,-0.2 -0.2,0 -0.35,0 l -13.5,-0.9 q -1.75,-0.45 -2.2,-1.6 -0.2,-0.45 -0.2,-1.6 1.3,-5.7 2.55,-11.6 2.55,-11.75 2.55,-22 0,-11.65 -3.6,-26.65 -3.13066,-13.130273 -7.8,-23.65 -0.0586,-0.06894 -0.15,-0.15 -0.30176,0.245508 -0.75,0.5 0.007,0.0793 0,0.15 -0.20898,0.04141 -0.45,0.1 -0.71172,0.439258 -1.15,0.6 -0.83574,0.673828 -1.1,0.85 -0.6,0.35 -1.65,1.2 -0.33789,0.270312 -0.6,0.5 -8.10605,5.279688 -22.35,15.65 -6.7,5.55 -12,9.9 -10.35,8.5 -11.5,8.5 -1.75,0 -3.25,-1.35 -0.75,-0.7 -2.75,-3.45 -0.75,-1 -1.5,-1.9 -4,-2.25 -10.3,-5.95 -14.15,-8.3 -19.95,-11.05 -0.35,0.9 -0.8,2.15 -1.45,4.05 -1.45,5.85 0,4.35 0,4.9 -0.15,2.95 -0.8,4.8 -1.1,3.1 -2.1,9.45 -1.2,7.25 -2,10.15 -0.85,3.4 -2.05,9.55 -1.341406,7.05312 -1.85,9.4 -0.108398,0.50801 -0.3,1.1 -0.55,1.6 -0.65,2.55 -0.05,0.55 -0.75,4.65 -0.6,4.1 -0.6,5.45 0,0.12617 0,0.25 h -0.4 q -0.615625,0.4 -1.4,0.4 -1.45,0 -2,-0.2 -0.312305,-0.10859 -0.6,-0.2 h -0.15 q -0.167383,-0.069 -0.3,-0.15 -0.43457,-0.12715 -0.75,-0.2 -0.4,-0.3 -0.4,-0.75 0,-0.7 0.75,-0.8 -1.2,-1.1 -1.2,-1.55 0,-0.11387 0,-0.25 H 29.4 q -1.7,-0.25 -3.55,-0.4 -0.916992,0.12578 -1.3,0.3 -0.45,0.2 -0.45,0.65 0,0.9 1,0.9 0.25,0 1.7,-0.15 1.727344,-0.13281 3.85,-0.2 0.314648,0.006 0.6,0 -0.04902,0.85801 0,1.65 0.04707,0.85996 0.2,1.65 0.05,0.4 1,3.55 0,0.43867 -1.05,0.95 -0.09785,0.0113 -0.2,0 -0.200586,0.22305 -0.45,0.35 l 1.75,32.7 3.4,4.5 q 1.471484,1.84375 2.95,3.55 2.014063,1.8252 4.7,4.15 4.15,3.55 6.45,6.15 7.3,5.1 14.45,7.85 2.7,0.35 6.35,0.8 0.5,0.2 1.4,0.35 0.55,0.25 0.6,1.3 1.057422,0.1959 2.1,0.35 11.481055,-0.14531 23.65,-2 6.75,-1 10.95,-2 l 0.25,-0.05 q 0,-0.0897 0,-0.2 0,-0.35 0.4,-0.5 0.95,-0.35 3.7,-0.4 22.1,-8.05 38.55,-27.85 2.05,-2.5 3.95,-5.05 3.2,-6.35 4.65,-12.15 0.75,-2.95 3.2,-11.2 M 33.8,147.7 v 0 -0.05 0.05 m 157.65,-20.4 q -2.07207,13.78789 -7.45,19.05 4.03926,-3.47109 6.15,-11.6 0.82949,-3.23711 1.3,-7.45 M 186.1,94.25 q -0.0301,-0.02715 -0.05,-0.05 -0.12129,0.125195 -0.35,0.25 0.05,0.05 0.05,0.1 0.0805,0.149609 0.15,0.3 z"
         stroke="none"
         fill="#ffd46e" />
      <path
         id="path14"
         d="m 123.85,207.75 q 2.48906,-0.37578 3.25,-0.55 l -0.05,0.05 h 0.05 q 11.25,-2.6 19.2,-3.85 5.2,-0.8 20.2,-3.05 0.0877,-0.54258 0.15,-1.05 l -0.15,0.85 -56.75,7.95 q 0.0662,0.13828 0.15,0.25 0.2,0.25 0.65,0.4 h 4.7 q 3.2,-0.2 5.8,-0.55 1.35,-0.2 2.8,-0.45 M 30,147.3 q 0,0.2 -0.3,1.1 -0.35,0.85 -0.35,1.25 0,0.5 0.1,0.7 0.1,0.05 0.15,0.1 0.45,0.15 0.6,0.15 0.304687,0 0.55,-0.15 l -0.25,-5.3 0.25,5.3 q 0.249414,-0.12695 0.45,-0.35 0.102148,0.0113 0.2,0 1.05,-0.51133 1.05,-0.95 -0.95,-3.15 -1,-3.55 -0.15293,-0.79004 -0.2,-1.65 -0.349414,-0.1543 -0.75,-0.3 0.03379,-0.24512 0.05,-0.5 H 21.8 q 3.1,0.45 5.2,1.15 l 3.2,1 q -0.05,0.7 -0.2,2 m -20.6,-50 0.05,0.1 q 0.064063,-0.05898 0.1,-0.15 -0.069141,0.02285 -0.15,0 V 97.3 M 74.45,3.8 Q 74.57207,3.5333984 74.8,3.3 74.289062,3.0316406 73.7,2.75 73.958203,3.2857422 74.45,3.8 m 17.85,8.3 q 0.08867,0.05488 0.15,0.05 -0.108008,-0.03906 -0.2,-0.1 0.04063,0.04336 0.05,0.05 m 56,5.3 -6.5,-1.75 q -1.4,-0.35 -1.95,-0.5 -0.85,-0.3 -1.9,-0.8 l -1.95,-1 -2.85,-0.4 q -3.16387,-0.28125 -5.6,-0.55 l 20.75,5 m 37.8,161.95 q -0.0443,-0.085 -0.1,-0.2 l -7.05,0.45 q 3.97422,0.33633 7.15,-0.25 m -15.65,1.05 q 0.14531,-0.14824 0.3,-0.3 l -0.25,0.05 -0.05,0.25 M 33.8,147.7 v 0 -0.05 0.05 m 162.5,-86 -0.8,2.65 q 0.26328,-0.523047 0.55,-1.1 0.45,-0.9 0.9,-1.65 -0.24668,0.08223 -0.65,0.1 m -15.8,-36.55 -3.2,6.7 q 0.68281,-1.008594 1.4,-2.1 0.75,-1.4 2.2,-4.65 -5.8,-1.35 -14.9,-4.05 -7.12754,-2.127539 -13.25,-4.15 -0.19336,1.083594 -1.6,1.2 l 29.35,7.05 m -3.2,6.7 3.2,-6.7 -29.35,-7.05 q -0.13672,0 -0.3,0 l -2.55,-0.7 -20.75,-5 q -1.04434,-0.09609 -1.95,-0.2 -5.9,-0.55 -6.5,-0.75 -3.02305,-0.91875 -4.25,-2.1 L 76.5,0.15 74.75,1.45 q 0.272266,0.1503906 0.55,0.3 10.25,5.55 10.9,5.8 0.2,0.1 8.75,3.8 4.441797,2.090234 6.55,3.5 0.85117,0.226172 1.7,0.45 5.5,3.05 15.7,9.05 10.75,6.4 15.2,8.85 -2.1,1.2 -7.05,3.2 -7.45,3.05 -7.85,3.2 -1.15,1.1 -1.35,1.35 -0.35,0.6 -0.35,1.95 0,3 6.2,6.8 1.3877,0.824023 9.85,5.15 0.8332,0.460938 1.75,0.9 0.0973,0.07324 0.2,0.1 0.38789,0.238281 0.8,0.45 0.40664,0.20332 1.1,0.85 -2.57012,1.263477 -2.7,1.35 -2.55,1.75 -3.75,2.55 -2.05,1.4 -3.65,2 L 127.2,63 q -10.56758,8.083594 -15.4,11.05 -2.25,1.35 -9.95,7.7 -9.3,7.7 -13.15,10.9 Q 87.5,89.7 83.05,86 79.95,83.4 75.9,80.95 71.65,78.4 65.5,75.25 q -1.879883,-0.967578 -3.4,-1.7 -1.476562,-1.486133 -3.25,-1.85 -3.676172,-1.388867 -6.9,-1.2 -0.919141,-0.290625 -2,0.15 -0.02441,0.03848 -0.05,0.05 -0.227734,0.08769 -0.45,0.2 -0.437695,0.117383 -0.8,0.25 -0.06231,0.04609 -0.15,0.05 -1.157031,0.534766 -1.35,1.35 -1.779883,2.229102 -2.45,6.25 -0.3,1.7 -0.7,5.1 -0.35,2.95 -1,4.45 -0.6,6.3 -3.2,18.9 -0.3,1.45 -3.95,16.85 -1.50332,6.34473 -2.6,11.4 H 33.2 q -0.304687,0.78594 -1.25,0.7 h -3.2 q -0.421484,-0.42148 -0.55,-0.8 0.447266,-0.88809 0.75,-2.25 0.35,-2 0.55,-2.85 0.25,-1.25 0.45,-3 0.2,-1.95 0.3,-2.95 0.9,-7.7 0.9,-11.8 0,-2.17246 -0.2,-3.9 -0.06855,-0.96738 -0.25,-1.8 -0.17207,-1.94023 -0.3,-2.75 -0.35,-2.1 -1,-3.4 -0.08047,-0.14258 -0.15,-0.3 0.07695,-0.0309 0.1,-0.1 -0.85,-2.65 -1.5,-3.5 -0.9,-1.4 -3.25,-2.05 -2.35,-0.65 -4.8,-0.2 -0.871875,-0.270508 -2.1,0.2 h -0.2 q -1.55,0.4 -2.9,1.15 -1.75,1.05 -2.05,1.15 -0.170703,0.07305 -0.35,0.15 -0.264648,0.379688 -0.65,0.9 -0.326758,0.389063 -0.65,0.65 -0.303516,0.559766 -0.6,0.9 0.427734,1.01816 0.75,1.3 0.05,0.1 0.15,0.1 0.05293,0 0.1,0 -0.15,0.28105 -0.15,0.75 0,1 0.95,1 0.55,0 0.9,-0.35 0.7,-0.65 1.55,-1.1 0.85,-0.5 5.3,-1.45 L 20,99.75 q 0.810352,-0.08223 1.7,-0.15 0.5,0.35 2.75,2.55 0.50332,0.50332 0.9,0.85 0.03437,0.0529 0.05,0.1 1,2.85 1.05,7.25 0,2.3 -0.15,4.9 0,10 -0.45,13 -0.9,6.05 -4.55,13.25 -1.1,0.1 -1.1,0.7 0,0.25 0.2,0.45 0.3,0.35 1.4,0.5 h 8.75 q 0.07227,-0.40684 0.1,-0.85 -2.122656,0.0672 -3.85,0.2 -1.45,0.15 -1.7,0.15 -1,0 -1,-0.9 0,-0.45 0.45,-0.65 0.383008,-0.17422 1.3,-0.3 1.85,0.15 3.55,0.4 h 1.75 q 0,0.13613 0,0.25 0,0.45 1.2,1.55 -0.75,0.1 -0.75,0.8 0,0.45 0.4,0.75 0.31543,0.0728 0.75,0.2 0.132617,0.0811 0.3,0.15 h 0.15 q 0.287695,0.0914 0.6,0.2 0.55,0.2 2,0.2 0.784375,0 1.4,-0.4 h 0.4 q 0,-0.12383 0,-0.25 0,-1.35 0.6,-5.45 0.7,-4.1 0.75,-4.65 0.1,-0.95 0.65,-2.55 0.191602,-0.59199 0.3,-1.1 0.508594,-2.34688 1.85,-9.4 1.2,-6.15 2.05,-9.55 0.8,-2.9 2,-10.15 1,-6.35 2.1,-9.45 0.65,-1.85 0.8,-4.8 0,-0.55 0,-4.9 0,-1.8 1.45,-5.85 0.45,-1.25 0.8,-2.15 5.8,2.75 19.95,11.05 6.3,3.7 10.3,5.95 0.75,0.9 1.5,1.9 2,2.75 2.75,3.45 1.5,1.35 3.25,1.35 1.15,0 11.5,-8.5 5.3,-4.35 12,-9.9 14.24395,-10.370312 22.35,-15.65 0.26211,-0.229688 0.6,-0.5 1.05,-0.85 1.65,-1.2 0.26426,-0.176172 1.1,-0.85 0.43828,-0.160742 1.15,-0.6 h 0.05 q 0.2168,-0.121875 0.4,-0.25 0.44824,-0.254492 0.75,-0.5 0.0914,0.08105 0.15,0.15 4.66934,10.519727 7.8,23.65 3.6,15 3.6,26.65 0,10.25 -2.55,22 -1.25,5.9 -2.55,11.6 0,1.15 0.2,1.6 0.45,1.15 2.2,1.6 l 13.5,0.9 q 0.15,0 0.35,0 0.35,0.2 1.05,0.2 0.5,0 0.8,-0.1 -0.3,1 -0.6,2.1 -2.45,8.25 -3.2,11.2 -1.45,5.8 -4.65,12.15 -1.9,2.55 -3.95,5.05 -16.45,19.8 -38.55,27.85 -2.75,0.05 -3.7,0.4 -0.4,0.15 -0.4,0.5 0,0.11035 0,0.2 l 56.75,-7.95 0.15,-0.85 q 0.66641,-3.99863 0.8,-4.8 0.45,-3.4 0.45,-5.75 0.55,-5.4 1.9,-7.55 0.29258,-0.45117 0.65,-0.8 l 0.05,-0.25 0.25,-0.05 q 1.07051,-0.80137 2.65,-0.9 0.65,-0.05 5.4,0.4 0.0924,0.008 0.15,0 l 7.05,-0.45 q -4.56094,-8.72676 -5.7,-11.5 -3,-6.95 -3,-11.9 0,-0.63906 0.2,-1.15 l -2,-5.45 2,5.45 q 0.32637,-0.85078 1.2,-1.35 h -1.25 q 0.2,-0.25 0.25,-0.75 0,-0.5 -0.4,-1.3 -0.4,-0.85 -0.4,-1.3 -0.0904,-0.45176 -0.25,-0.75 v -0.05 q -0.3,-0.6 -0.8,-0.6 -0.75,0.05 -0.8,0.9 -0.75,-0.95 -1.25,-2.3 -0.31191,-0.93594 -0.4,-1.45 -0.51016,-0.37676 -0.85,-1.6 -0.35,-1.8 -0.35,-1.85 0,-0.30059 0,-0.55 -0.0301,-0.0418 -0.1,-0.1 1.9,-8.8 3.55,-17.75 -0.1,1.15 -0.2,2.3 0.05,-0.2 0.1,-0.35 0.15,-1.4 0.2,-2.6 2,-11.15 3.55,-22.6 0,-0.6 0,-1.15 0.2,-0.45 0.4,-0.85 V 98.5 q 0.0201,-0.02363 0.05,-0.05 0.45918,-0.413281 1.25,-1.25 0.8375,-0.498633 2.3,-0.85 0.34121,0.15 0.85,0.15 0.4,0 0.65,-0.25 0.16953,-0.169531 0.2,-0.35 0.05,-0.10332 0.05,-0.2 0,-0.408008 -0.4,-0.8 -0.16992,-0.216211 -0.5,-0.45 0.83184,-0.155859 1,-0.45 0.0791,-0.118555 0.1,-0.55 V 93.4 q 0,-0.08106 0,-0.2 0,-0.09668 0,-0.2 0.11719,-0.05254 0.2,-0.15 0.2,-0.224219 0.2,-0.55 0,-0.254883 -0.15,-0.45 0.0391,-0.273242 0,-0.65 -0.2,-2.05 0.1,-2.65 0.15,-0.35 0.35,-1.1 0.15,-0.7 0.35,-1.05 0.8,-1.6 1,-2.15 3.25,-6.75 3.25,-8.5 0,-0.82832 -0.45,-1 0.60215,-1.064063 1.3,-2.3 0.46543,-0.791211 4.1,-8.1 l 0.8,-2.65 q -0.29355,0.05 -0.7,0.05 -1.4,0 -8.8,-5.75 -8.3,-6.35 -13.2,-8.05 -0.05,-0.05 -1.75,-1.65 -0.45,-0.45 -0.45,-0.65 0,-0.95 0.15,-1.3 -0.0299,-0.08965 -0.05,-0.2 -0.1,-0.439258 -0.1,-1.2 0,-1.85 3.3,-7 1.16992,-1.858008 2.6,-4.1 M 77.5,-0.65 q -1.108789,-0.29746094 -1.95,-0.3 -0.494922,0.53300781 -1.2,1.15 -0.400977,0.35175781 -0.8,0.65 0.586914,0.2824219 1.2,0.6 l 1.75,-1.3 38.35,9.2 Q 114.02988,8.5705078 114,7.65 111.8334,6.8449219 108.6,5.85 106.97617,5.3859375 105.65,5 93.295703,3.2060547 85.9,2.05 79.821094,-0.04648437 77.5,-0.65 Z"
         stroke="none"
         fill="#be538e" />
      <path
         id="path16"
         d="m 30.65,142.3 q -0.02773,0.44316 -0.1,0.85 -0.01621,0.25488 -0.05,0.5 0.400586,0.1457 0.75,0.3 -0.04902,-0.79199 0,-1.65 -0.285352,0.006 -0.6,0 M 25.5,60.15 25.1,59.75 q 0,0.113281 0,0.2 0,0.244141 -0.1,0.5 l 0.5,-0.3 M 12.55,48.2 q -0.05898,0.09219 -0.15,0.15 0.491406,0.491406 2.1,1.65 l -1.95,-1.8 m 43.3,-32.65 q -8.121289,5.743164 -11.85,8.1 -6.1,3.95 -17.05,13.2 -3.081641,2.598828 -5.6,4.65 l 34.5,-25.95 m 71.2,20.85 q 4.95,-2 7.05,-3.2 -4.45,-2.45 -15.2,-8.85 -10.2,-6 -15.7,-9.05 -0.84883,-0.223828 -1.7,-0.45 -2.108203,-1.409766 -6.55,-3.5 Q 86.4,7.65 86.2,7.55 85.55,7.3 75.3,1.75 75.022266,1.6003906 74.75,1.45 l -1.5,1.1 q 0.06465,0.048633 0.1,0.05 -3.445703,2.6480469 -9.95,7.4 -0.873633,0.638281 -1.75,1.25 l -5.8,4.3 -34.5,25.95 q -6.083398,4.989648 -8.8,6.7 L 14.5,50 q 1.804492,1.295117 5.05,3.45 5.353516,3.906641 5.55,6.3 l 0.4,0.4 -0.5,0.3 Q 23.9875,63.240039 13.25,69.9 0.9,76.95 0,77.55 q 1.35,2.1 5.1,9.4 3.3972656,6.589844 4.1,8.9 -0.45,0.369922 -0.45,0.6 0,0.05 0.1,0.45 0.1705078,0.272656 0.55,0.35 0.080859,0.02285 0.15,0 Q 9.514062,97.34102 9.45,97.4 9.1998047,97.674805 9,97.9 l 0.95,2.1 q 0.181445,-0.12832 0.35,-0.35 0.296484,-0.340234 0.6,-0.9 0.323242,-0.260937 0.65,-0.65 0.385352,-0.520312 0.65,-0.9 0.179297,-0.07695 0.35,-0.15 0.3,-0.1 2.05,-1.15 1.35,-0.75 2.9,-1.15 h 0.2 q 1.228125,-0.470508 2.1,-0.2 2.45,-0.45 4.8,0.2 2.35,0.65 3.25,2.05 0.65,0.85 1.5,3.5 -0.02305,0.0691 -0.1,0.1 0.06953,0.15742 0.15,0.3 0.65,1.3 1,3.4 0.12793,0.80977 0.3,2.75 0.181445,0.83262 0.25,1.8 0.2,1.72754 0.2,3.9 0,4.1 -0.9,11.8 -0.1,1 -0.3,2.95 -0.2,1.75 -0.45,3 -0.2,0.85 -0.55,2.85 -0.302734,1.36191 -0.75,2.25 0.128516,0.37852 0.55,0.8 h 3.2 q 0.945313,0.0859 1.25,-0.7 h 0.05 q 1.09668,-5.05527 2.6,-11.4 3.65,-15.4 3.95,-16.85 2.6,-12.6 3.2,-18.9 0.65,-1.5 1,-4.45 0.4,-3.4 0.7,-5.1 0.670117,-4.020898 2.45,-6.25 0.192969,-0.815234 1.35,-1.35 0.0498,0.0055 0.05,-0.05 0.06465,0.02207 0.1,0 0.362305,-0.132617 0.8,-0.25 0.222266,-0.112305 0.45,-0.2 0.02559,-0.01152 0.05,-0.05 1.080859,-0.440625 2,-0.15 3.223828,-0.188867 6.9,1.2 1.773438,0.363867 3.25,1.85 1.520117,0.732422 3.4,1.7 6.15,3.15 10.4,5.7 4.05,2.45 7.15,5.05 4.45,3.7 5.65,6.65 3.85,-3.2 13.15,-10.9 7.7,-6.35 9.95,-7.7 4.83242,-2.966406 15.4,-11.05 l 0.1,0.05 q 1.6,-0.6 3.65,-2 1.2,-0.8 3.75,-2.55 0.12988,-0.08652 2.7,-1.35 -0.69336,-0.64668 -1.1,-0.85 -0.41211,-0.211719 -0.8,-0.45 -0.10273,-0.02676 -0.2,-0.1 -0.9168,-0.439062 -1.75,-0.9 -8.4623,-4.325977 -9.85,-5.15 -6.2,-3.8 -6.2,-6.8 0,-1.35 0.35,-1.95 0.2,-0.25 1.35,-1.35 0.4,-0.15 7.85,-3.2 M 92.45,12.15 q -0.06133,0.0049 -0.15,-0.05 -0.0094,-0.0066 -0.05,-0.05 0.09199,0.06094 0.2,0.1 M 74.8,3.3 Q 74.57207,3.5333984 74.45,3.8 73.958203,3.2857422 73.7,2.75 74.289062,3.0316406 74.8,3.3 Z"
         stroke="none"
         fill="#fb0300" />
      <path
         id="path18"
         d="m 48.5,71.2 q 0.08769,-0.0039 0.15,-0.05 -0.03535,0.02207 -0.1,0 -1.95e-4,0.05547 -0.05,0.05 m 91,-10.15 q 0.007,-0.0707 0,-0.15 -0.1832,0.128125 -0.4,0.25 h -0.05 q 0.24102,-0.05859 0.45,-0.1 z"
         stroke="none"
         fill="#cc68a3" />
      <path
         id="path20"
         d="m 9,97.9 q -0.65,0.728906 -0.65,0.8 0,0.45 0.4,0.75 v 0 q 0.1226563,0.7 0.85,0.7 0.1607422,0 0.35,-0.15 L 9,97.9 M 74.75,1.45 q -0.613086,-0.3175781 -1.2,-0.6 -0.897461,0.7654297 -1.6,1.2 0.293359,0.1328125 0.6,0.25 0.362109,0.1285156 0.7,0.25 l 1.5,-1.1 m 110.5,92 q -0.0209,0.431445 -0.1,0.55 -0.16816,0.294141 -1,0.45 0.33008,0.233789 0.5,0.45 0.15312,-0.09707 0.25,-0.2 0.35,-0.4 0.35,-1.25 z"
         stroke="none"
         fill="#fb0600" />
      <path
         id="path22"
         d="m 185.9,94.85 -0.3,0.95 q 0.41328,-0.0123 0.85,-0.05 -0.26953,-0.423438 -0.55,-0.9 m -0.45,-1.95 v -0.05 q -0.0828,0.09746 -0.2,0.15 0,0.10332 0,0.2 0,0.118945 0,0.2 v 0.05 q 0,0.85 -0.35,1.25 -0.0969,0.10293 -0.25,0.2 0.4,0.391992 0.4,0.8 0,0.09668 -0.05,0.2 0.30605,-0.03535 0.6,-0.1 l 0.3,-0.95 q -0.0695,-0.150391 -0.15,-0.3 0,-0.05 -0.05,-0.1 0.22871,-0.124805 0.35,-0.25 -0.6,-0.739648 -0.6,-1.3 z"
         stroke="none"
         fill="#c55d99" />
      <path
         id="path24"
         d="m 181,97.2 q -0.79082,0.836719 -1.25,1.25 -0.0299,0.02637 -0.05,0.05 v 0.05 q -0.2,0.4 -0.4,0.85 0,0.55 0,1.15 -1.55,11.45 -3.55,22.6 -0.05,1.2 -0.2,2.6 -0.05,0.15 -0.1,0.35 0.1,-1.15 0.2,-2.3 -1.65,8.95 -3.55,17.75 0.0699,0.0582 0.1,0.1 0,0.24941 0,0.55 0,0.05 0.35,1.85 0.33984,1.22324 0.85,1.6 0.0881,0.51406 0.4,1.45 0.5,1.35 1.25,2.3 0.05,-0.85 0.8,-0.9 0.5,0 0.8,0.6 0.1,-0.1 0.2,-0.15 4.12363,0.0215 7.15,-2.6 5.37793,-5.26211 7.45,-19.05 0.0354,-0.0623 0.05,-0.15 0.7,-6.10059 0.7,-14.2 0,-2.35 -2.05,-9.5 -0.7,-2.55 -1.25,-4.25 0.12441,0.134766 0.25,0.25 -0.62051,-1.105859 -1.35,-2 l -1.3,-1.3 1.3,1.3 q 0.72949,0.894141 1.35,2 1.14297,1.16816 2.25,1.5 -0.0955,-0.15039 -0.2,-0.35 -0.5,-1.05 -0.7,-1.6 -0.5,-1.65 -2.9,-3.4 -0.96621,-0.741406 -1.5,-1.35 l -0.2,0.6 q 0.28047,0.476562 0.55,0.9 -0.43672,0.03769 -0.85,0.05 l -0.1,0.35 0.1,-0.35 q -0.29395,0.06465 -0.6,0.1 -0.0305,0.180469 -0.2,0.35 -0.25,0.25 -0.65,0.25 -0.50879,0 -0.85,-0.15 -1.4625,0.351367 -2.3,0.85 z"
         stroke="none"
         fill="#ff6b00" />
    </g>
    <g
       id="CHARACTERS_KhonjinFolder_khonjin_eye_0_Layer0_0_FILL">
      <path
         id="path27"
         d="m 0.55,33 q 2.75,0.4 4.6,-3.55 1.2,-2.5 1.7,-5.85 Q 8,16.15 7.25,10.3 6.5,5.15 4.7,3.2 2.85,1.3 1,4 -1.15,6.9 -2.25,14.25 l -0.55,8.7 Q -2.7,32.5 0.55,33 m 67.85,0.4 q 2.8,0 4,-4.2 0.8,-2.65 0.8,-6 Q 73.2,15.65 71.6,10 70.1,4.95 68,3.35 65.9,1.75 64.45,4.65 62.8,7.85 62.8,15.3 q 0,-0.45 0.8,8.7 1.5,9.4 4.8,9.4 z"
         stroke="none"
         fill="#000000" />
    </g>
    <g
       id="CHARACTERS_KhonjinFolder_khonjin_nose_0_Layer0_0_FILL">
      <path
         id="path30"
         d="m 50.6,6.5 q 0.178516,1.9710938 0.25,3.9 0.395703,9.961523 -1.95,18.8 -2.95,11.05 -10.5,22 h -2.7 q -1,-0.4 -26.3,-0.4 l -2.3,0.6 v -0.2 q 5.75,-6.45 9.5,-11.1 7.1,-8.8 7.1,-12.3 0.2,-0.9 0.05,-1.65 Q 23.4,24.7 21.6,24.7 L 12,25.3 Q 12.1,25.1 18.4,14.45 22.04375,8.3011719 22.35,4.65 22.4,4.3294922 22.4,4 22.4,2.5 22.05,1.65 21.812891,1.0404297 21.3,0.5 21.09043,0.24199219 20.8,0 q -0.95,2.6 -2.9,6.6 -2.1,4.35 -3.6,6.7 -0.55,0.85 -4.7,7 -3.9,5.9 -3.9,6.7 0,1.35 0.55,1.9 0.35,0.35 1.45,0.7 l 10.5,0.2 Q 16.05,34.5 7.7,43.9 0,52.55 0,53.1 0,54.45 0.55,55 0.9,55.35 2,55.7 H 38.8 Q 49.35,43.75 52.4,35.05 54.7,28.4 54.7,15.1 54.9,12.65 54.7,10.4 54.643164,9.6693359 54.55,9.05 54.06582,5.9 52.6,5.9 q -1.15,0 -1.5,0.3 -0.35,0.3 -0.5,0.3 z"
         stroke="none"
         fill="#fd5f01" />
      <path
         id="path32"
         d="M 50.85,10.4 Q 50.77852,8.4710938 50.6,6.5 q 0.15,0 0.5,-0.3 0.35,-0.3 1.5,-0.3 1.46582,0 1.95,3.15 Q 55.2,8.1935547 55.2,7.1 55.2,5.2 52.55,4.1 49.5,2.85 39.8,1.2 28.2,-1.25 24.05,-0.75 22.104102,-0.51054687 21.3,0.5 21.812891,1.0404297 22.05,1.65 22.4,2.5 22.4,4 22.4,4.3294922 22.35,4.65 22.04375,8.3011719 18.4,14.45 12.1,25.1 12,25.3 l 9.6,-0.6 q 1.8,0 2.15,1.45 0.15,0.75 -0.05,1.65 0,3.5 -7.1,12.3 -3.75,4.65 -9.5,11.1 v 0.2 l 2.3,-0.6 q 25.3,0 26.3,0.4 h 2.7 q 7.55,-10.95 10.5,-22 2.345703,-8.838477 1.95,-18.8 z"
         stroke="none"
         fill="#fd9766" />
    </g>
    <g
       id="CHARACTERS_KhonjinFolder_khonjin_arm_0_Layer0_0_FILL">
      <path
         id="path35"
         d="m 11.2,200.25 q -0.40957,-0.15 -0.75,-0.15 -1.05,0 -1.05,1.3 0,0.7 0.5,1.7 0.3,0.75 0.45,0.85 0.35,0.3 1.15,0.85 0.108398,0.13555 0.25,0.25 -0.02305,-0.0424 -0.05,-0.1 -1.312109,-2.78379 -0.5,-4.7 m 46.1,18.5 q -0.1,-0.85 -0.05,-1.8 0.1,-2.4 0.95,-5.4 l 0.85,-2.55 -6,8.25 q 1.75,-0.65 2.45,-1.05 h 1.05 q 0.3,0.35 0.4,1.4 0.05,0.7 0.35,1.15 M 45.15,206 q -1.331641,0.56875 -2.6,1.15 5.385156,-1.73574 9.5,-3.7 -3.387891,1.41367 -6.9,2.55 m -2.6,1.15 q 1.268359,-0.58125 2.6,-1.15 -5.001758,1.62637 -10.25,2.75 -0.162109,0.24141 -0.3,0.5 -0.05,0.1 -0.1,0.2 -0.2,0.55 -0.55,1.7 -0.1,0.15 -0.15,0.35 1.15,-0.65 2.45,-1.35 2.9,-1.5 6.3,-3 m 9.5,-3.7 q 0.349414,-0.13438 0.7,-0.3 -0.02519,-0.015 -0.05,-0.05 -2.102734,0.74727 -5.1,1.9 -1.249609,0.49512 -2.45,1 3.512109,-1.13633 6.9,-2.55 m 23.35,7.7 v -0.05 q -0.45,1.5 -1.05,2.95 -0.35,0.8 -0.7,1.55 0.3,-0.45 0.55,-0.85 0.35,-0.6 0.55,-1.1 0.55,-1.2 0.65,-2.5 M 17.95,177.7 q -2.45,0.45 -2.45,2.4 0,0.75 0.65,1.45 0.85,0.85 2.5,1.1 0.25,0.15 0.25,0.35 -0.05,0.25 0.1,0.45 0.1,0.15 1.1,0.8 1.05,0.9 2.75,1.75 0.6,0.3 2.25,1.65 1.4,1.2 2.55,1.55 2.35,0.75 4.8,2.6 0.7,0.5 1.9,1.8 0.3,0.3 1.4,0.95 0.9,0.5 0.9,0.85 0,0.16406 -0.5,0.7 -0.221875,0.30469 -0.6,0.7 l -0.5,0.2 -0.25,0.1 -0.15,0.05 q -0.08262,-0.0207 -0.2,-0.05 H 16.1 q -2.1,0.8 -2.85,1.85 -0.636328,0.83203 -0.65,2.25 -0.779297,-0.66113 -1.4,-0.95 -0.812109,1.91621 0.5,4.7 0.02695,0.0576 0.05,0.1 0.666406,0.59941 2.1,1.05 1,0.35 2.85,0.85 0.3,0.2 1.15,0.95 0.9,0.6 1.8,0.55 h 2.55 q 0.05,0.1 0.3,0.15 H 30 q 2.4,-0.15 3.65,-0.4 1.35,-0.25 2,-0.3 -0.425781,0.39316 -0.75,0.85 5.248242,-1.12363 10.25,-2.75 1.200391,-0.50488 2.45,-1 2.997266,-1.15273 5.1,-1.9 -0.05332,-0.015 -0.1,-0.05 -3.1,-2 -4.7,-3.15 -2.85,-2 -2.85,-3.1 0,-3.3 4.45,-0.8 2.3,1.35 5.6,3.8 0.95,0.95 3.55,2.15 1.45,0.65 4.2,1.8 2,0.9 4.1,1.55 1.15,0.4 1.15,1.5 0,2 -2.65,2 -1.8,0 -6.65,-2.3 -4.235547,-2.02148 -6.05,-3.35 -0.350586,0.16562 -0.7,0.3 -4.114844,1.96426 -9.5,3.7 -3.4,1.5 -6.3,3 -1.3,0.7 -2.45,1.35 -0.4,0.7 -0.85,1.3 -0.45,0.55 -0.9,0.85 -0.4,0.25 -1.65,0.6 -2.25,1.1 -3.45,3.05 -1.05,1.6 -1.05,3.25 0,0.65 0.55,1.65 0.15,0.3 0.4,0.85 0.25,0.45 0.8,0.85 0.45,0.25 1.25,0.75 0.75,0.4 1.4,0.55 0.5,0.1 1.4,0.5 0.75,0.4 2.25,0.5 0.65,0.1 1.3,0.3 0.9,0.15 3.2,0.2 0.1,0.15 0.6,0.15 0.9,0 3.05,-0.9 1.15,-0.45 2.55,-1.1 3.15,-1.55 4.1,-3.05 1.1,-1.9 2.2,-3.3 0.55,-0.75 1.85,-1.2 0.1,-0.05 0.25,-0.05 l 6,-8.25 -0.85,2.55 q -0.85,3 -0.95,5.4 -0.05,0.95 0.05,1.8 0.1,0.25 0.3,0.4 0.5,0.45 1.65,1.75 1.25,1.05 2.75,1.05 0.15,0 0.3,0 3.25,0 4,-0.25 0.45,-0.15 0.95,-0.55 0.8,-0.25 2,-1.2 2.85,-2.35 3.45,-3.1 0.55,-0.7 0.95,-1.25 0.35,-0.75 0.7,-1.55 0.6,-1.45 1.05,-2.95 0,-0.2 0,-0.4 0,-0.6 -0.1,-2.15 -0.15,-2 -0.3,-2.5 -0.05,-0.2 -0.25,-0.5 -0.2,-0.3 -0.55,-0.7 -0.15,-0.15 -0.25,-0.25 -0.55,-0.6 -0.8,-0.9 -0.4,-0.45 -0.75,-1.2 -0.2,-0.55 -0.35,-0.9 -0.05,-0.1 -0.1,-0.2 -2.3,-4.45 -2.3,-9.4 0,-1.05 0.2,-3.1 0.15,-2.05 0.15,-3.15 0,-2.55 -0.35,-5.35 v -6.6 q -0.15,-0.35 -0.15,-1.25 v -0.8 q 0,-0.2 0.15,-0.45 -0.5,-0.6 -0.5,-1.25 0,-0.35 0.5,-0.6 0.2,0.1 0.5,0.55 0.1,-0.55 0.1,-0.8 v -0.05 q 0,-0.15 -0.25,-0.4 l -0.25,-0.05 q -0.4,0.2 -0.6,0.8 -0.15,0.35 -0.3,1.05 -0.4,0.85 -0.35,0.95 v 0.55 q -1.15,1.15 -2.75,2.85 -0.328125,0.2625 -0.65,0.55 -1.150977,0.5541 -2.9,1.95 -0.972852,0.78926 -2.1,1.75 -0.113477,0.10977 -0.25,0.2 -2.85,1.9 -6.9,5 -2.25,1 -5.55,4.2 -0.105469,0.10391 -0.2,0.2 -0.941211,0.49141 -1.5,1.1 -0.0031,-0.10625 -0.05,-0.2 -0.15,-0.2 -0.4,-0.25 -0.6,-0.15 -1.35,-0.1 -0.7,0 -0.95,-0.1 -1.1,-0.85 -1.15,-0.9 -0.6,-0.7 -2.35,-2 -1.1,-1.35 -1.65,-1.65 -1.65,-1.2 -2.8,-1.8 -0.9,-0.45 -2.85,-1.75 -1.6,-1 -2.75,-1.5 -3.65,-1.6 -6.65,-1.9 h -4.8 M 72.1,204 q -0.2,0.05 -0.3,0.15 -0.05,-0.45 -0.15,-0.9 0.2,0.35 0.45,0.75 m 0.65,2.55 q 0.05,-0.9 0,-1.3 0,-0.15 0,-0.3 0.2,0.3 0.45,0.6 -0.2,0.4 -0.45,1 m 1.5,1.1 q 0,0.3 0,0.7 -0.05,0.75 0.15,2.4 0,2.1 -2.6,5.45 -0.35,0.4 -0.75,0.85 0.05,-0.2 0.1,-0.4 0.1,-0.3 0.4,-0.9 0.35,-0.55 0.35,-0.7 0.05,-0.8 0.4,-1.6 l 0.3,-0.75 0.1,-0.4 q 0.05,-0.15 0.25,-0.2 0.2,-0.1 0.2,-0.15 0.1,-1.2 0.2,-1.6 0,-0.15 0.5,-1.6 0.2,-0.6 0.4,-1.1 m -4.7,10.7 q -0.3,0.2 -0.6,0.45 -0.55,0.4 -1,0.7 0,-0.1 0.05,-0.15 0.1,-0.3 0.5,-0.45 0.45,-0.2 0.75,-0.65 0.15,0 0.3,0.1 m -2.65,1.8 q -0.7,0.45 -0.9,0.5 -0.15,0.05 -0.35,0.1 0.55,-0.45 1.1,-0.95 0.05,0.2 0.15,0.35 z"
         stroke="none"
         fill="#ffffff" />
      <path
         id="path37"
         d="m 74.2,214.75 q -0.25,0.4 -0.55,0.85 -3.15,6 -9.6,7.4 h 3.5 q 4,-2.05 6.45,-7.85 0.1,-0.2 0.2,-0.4 m 1.2,-3.65 v 0.05 q 0.1,-0.5 0.25,-1 -0.15,0.45 -0.25,0.95 m -8.15,10.05 q -0.5,0.4 -0.95,0.55 -0.75,0.25 -4,0.25 0.7,0.9 1.75,1.05 6.45,-1.4 9.6,-7.4 -0.4,0.55 -0.95,1.25 -0.6,0.75 -3.45,3.1 -1.2,0.95 -2,1.2 M 72.9,201.9 q -0.2,0.05 -0.4,0 -0.25,-0.1 -0.45,-0.3 0.15,0.35 0.35,0.9 0.35,0.75 0.75,1.2 0.25,0.3 0.8,0.9 0.1,-0.1 0.2,-0.15 0.6,0.2 0.6,1.05 v 0.05 q 0.2,0.3 0.25,0.5 0.15,0.5 0.3,2.5 0.1,1.55 0.1,2.15 0,0.2 0,0.4 0.1,-0.5 0.25,-0.95 l 0.15,-1 q 0.15,-0.9 0.2,-1.7 L 76.05,207 72.9,201.9 m 0.45,-0.6 q -0.15,0.5 -0.45,0.6 l 3.15,5.1 q 0,-0.4 0,-0.75 0,-1.05 -0.4,-3.9 -0.05,-0.25 -0.05,-0.5 -0.4,-0.3 -0.75,-0.6 v 0.05 q -0.05,0.4 -0.5,0.4 -0.6,0 -1,-0.4 m -47.1,-39.75 q 1.9,2.8 7.55,11.75 3.4,5.45 7.1,10.25 -9.75,-13.95 -19.4,-30.3 -6.4,-10.8 -10.85,-19.85 3.05,11.95 7.65,17.4 3.65,4.3 7.95,10.75 M 66,220.65 q 0.2,-0.05 0.9,-0.5 -0.1,-0.15 -0.15,-0.35 -0.55,0.5 -1.1,0.95 0.2,-0.05 0.35,-0.1 m 2.95,-1.85 q 0.3,-0.25 0.6,-0.45 -0.15,-0.1 -0.3,-0.1 -0.3,0.45 -0.75,0.65 -0.4,0.15 -0.5,0.45 -0.05,0.05 -0.05,0.15 0.45,-0.3 1,-0.7 m 5.3,-10.45 q 0,-0.4 0,-0.7 -0.2,0.5 -0.4,1.1 -0.5,1.45 -0.5,1.6 -0.1,0.4 -0.2,1.6 0,0.05 -0.2,0.15 -0.2,0.05 -0.25,0.2 l -0.1,0.4 -0.3,0.75 q -0.35,0.8 -0.4,1.6 0,0.15 -0.35,0.7 -0.3,0.6 -0.4,0.9 -0.05,0.2 -0.1,0.4 0.4,-0.45 0.75,-0.85 2.6,-3.35 2.6,-5.45 -0.2,-1.65 -0.15,-2.4 m -1.5,-3.1 q 0.05,0.4 0,1.3 0.25,-0.6 0.45,-1 -0.25,-0.3 -0.45,-0.6 0,0.15 0,0.3 m -0.95,-1.1 q 0.1,-0.1 0.3,-0.15 -0.25,-0.4 -0.45,-0.75 0.1,0.45 0.15,0.9 M 56.1,144.4 q 0.55,1.05 1.15,2.1 6.9,12.4 13.75,22.4 0,-0.05 0.05,0 h 0.05 q 0.1,-0.2 0.25,-0.4 0.6,-0.85 1.3,-1.6 -0.8,-0.45 -1.6,-1.3 -1.1,-1.15 -2.25,-3 -1.8,-2.8 -1.8,-3.75 0,-0.2 0.15,-0.4 -1.2,-1.45 -2.6,-3.4 -1.8,-2.4 -5.35,-6.8 Q 57.4,146 56.1,144.4 M 74.55,9.55 q 0,-1.25 0.5,-3.75 0.5,-2.5 0.5,-3 0,-0.3 -0.2,-0.8 h -5.3 5.3 Q 75.25,1.7 75.05,1.35 74.55,0.55 74.05,0 73.8,0 73.55,0.1 73.35,0.2 73.2,0.4 72.6,0.3 71.7,0.6 69.1,1.35 67.05,4.25 65.35,6.55 64.6,7.65 64.4,7.9 64.25,8.2 66.8,5.4 69.4,2.75 66.8,5.4 64.25,8.2 63.1,9.8 62.55,11 61.25,13.65 57.6,17.75 53.4,22.3 51.6,24.5 49.35,27.2 40,37.75 32.8,45.95 28.55,51.5 16.5,67.15 11.95,76.7 10.3,77.45 9.6,79.3 q -0.45,1.15 -2,2.95 -0.95,1.05 -3.25,3.5 -0.65,0.7 -0.6,2.85 0.05,2.35 -0.4,3.15 -2,3.7 -2.05,3.9 -0.25,0.65 -0.25,2.45 0,1.3 0.7,6.35 0.65,4.75 0.85,5.6 0.35,1.25 1.45,6.9 0.9,2.75 2.55,4 -0.05,0.2 -0.05,0.4 0,0.85 2,3.4 0.15,0.15 0.3,0.35 0.35,1.9 0.75,3.85 0.5,2.3 1.05,4.45 4.45,9.05 10.85,19.85 9.65,16.35 19.4,30.3 1.25,1.65 2.55,3.25 0.35,0.45 0.7,0.9 0.35,-0.05 0.85,0.1 0.25,0.35 0.25,0.9 0.35,0.05 0.5,0.65 0,0.15 -0.1,0.3 0.04687,0.0937 0.05,0.2 0.558789,-0.60859 1.5,-1.1 0.09453,-0.0961 0.2,-0.2 3.3,-3.2 5.55,-4.2 4.05,-3.1 6.9,-5 0.136523,-0.0902 0.25,-0.2 1.127148,-0.96074 2.1,-1.75 1.749023,-1.3959 2.9,-1.95 0.321875,-0.2875 0.65,-0.55 1.6,-1.7 2.75,-2.85 v -0.55 q -0.05,-0.1 0.35,-0.95 0.15,-0.7 0.3,-1.05 0.2,-0.6 0.6,-0.8 l 0.25,0.05 q 0.25,0.25 0.25,0.4 v 0.05 q 0.25,-0.3 0.75,-0.3 -6.85,-10 -13.75,-22.4 -0.6,-1.05 -1.15,-2.1 -1.45,-1.8 -2.25,-2.85 -6.35,-8.2 -8.6,-13.8 -2.2,-5.55 -2.2,-13.4 0,-1.75 0.15,-3.4 -0.15,-1 -0.15,-1.95 -0.3,-12.5 13.3,-35 6.85,-11.25 13.75,-20 0.55,-1.15 1.1,-2.1 0.8,0.7 1.3,1 0.05,0.1 0.1,0.25 0.25,0.35 0.65,1.1 l 0.3,0.65 q 0.1,0.35 0.3,0.7 l 0.4,1 q 0.05,0.05 0.85,2.4 0.5,1.45 1.05,2.3 l 0.25,0.05 Q 76.9,61.2 76.9,60.85 75.55,57.1 75.25,56.2 75.4,56 75.4,55.85 75.4,55.75 75.15,55.5 74.95,55.35 74.9,55.25 74.65,54.7 74.4,54.2 74.35,54 74.3,53.85 q 1.15,0.6 3.1,1.6 0.5,-0.2 0.5,-0.45 0,-0.25 -0.3,-0.55 h 0.05 q 0.35,-0.2 0.5,-0.55 0,-0.25 -0.65,-0.85 0.05,-0.05 0.05,-0.1 0.1,-0.25 0.1,-0.4 0,-0.8 -3.15,-2.65 l -0.1,-0.5 q 0,-0.3 0.75,-0.9 0.75,-0.6 0.75,-0.95 0,-0.65 -1.35,-1.05 1.05,-1.25 1.8,-3.15 1.2,-3.1 1.2,-6.05 0,-2.4 -0.95,-4.35 -1.15,-2.3 -1.55,-6.15 -0.5,-4.6 -0.5,-11.05 v -6.2 m -0.3,38 q 0,-0.15 0.25,0.1 l -0.05,0.05 -0.2,0.1 z"
         stroke="none"
         fill="#666666" />
      <path
         id="path39"
         d="m 49.5,196 q -4.45,-2.5 -4.45,0.8 0,1.1 2.85,3.1 1.6,1.15 4.7,3.15 0.04668,0.035 0.1,0.05 0.02481,0.035 0.05,0.05 1.814453,1.32852 6.05,3.35 4.85,2.3 6.65,2.3 2.65,0 2.65,-2 0,-1.1 -1.15,-1.5 -2.1,-0.65 -4.1,-1.55 -2.75,-1.15 -4.2,-1.8 -2.6,-1.2 -3.55,-2.15 -3.3,-2.45 -5.6,-3.8 z"
         stroke="none"
         fill="#cccccc" />
      <path
         id="path41"
         d="m 70.15,170 q -0.3,-0.45 -0.5,-0.55 -0.5,0.25 -0.5,0.6 0,0.65 0.5,1.25 l 0.05,0.05 q -0.05,0.05 -0.05,0.15 0,0.65 0.25,0.8 l 0.25,0.1 q 0.5,0 0.5,-0.8 0.1,-0.15 0.1,-0.35 -0.35,-0.8 -0.6,-1.25 z"
         stroke="none"
         fill="#000000" />
    </g>
    <g
       id="CHARACTERS_KhonjinFolder_khonjin_legs_0_Layer0_0_FILL">
      <path
         id="path44"
         d="M 171,78 V 2 H 32 V 61 L 0,78 H 80 V 27 h 53 v 30 l -31,21 z"
         stroke="none"
         fill="#000000" />
    </g>
    <path
       d="m 175.775,35.3 q 4.29941,5.162891 8.575,10.45 37.15,45.95 34.25,58.55 -2.80918,12.46875 -24.575,46.125 m -32.1,-131.25 Q 154.30625,10.529492 145.1,0.3 m -0.95,0 h -45.9 m 11.65,197 h 26.55 m 57.575,-46.875 q -0.30469,0.48145 -0.625,0.975 -11.04297,16.95859 -21.5,31.5 m 5.85,-3.4 2.7,-1.65 q 7.62012,-3.89121 10.875,-2.5 m -3.075,11.225 q 9.49766,-2.89063 9.35,0.675 m -11.85,16.075 q -0.62402,0.34609 -1.25,0.675 -0.47109,0.20215 -0.9,0.3 l -15.525,3.45 q 3.90254,-0.007 11.525,2.55 4.95605,1.67129 4.775,3.2 -0.12266,1.11191 -3.025,2.15 -6.35,2.25 -15.75,1.65 -1.21523,-0.0805 -2.425,-0.325 -5.59023,-1.07207 -11.175,-5.425 l -5.4,-5.25 2,11 q -2.65,0.7 -5.6,0.4 -3.95332,-0.40195 -5.925,-2.7 -0.98008,-1.11621 -1.475,-2.7 -1.5,-4.8 -0.4,-10.4 l 0.325,-1.075 M 0,197.3 V 0.3 m 48.7,0 h 32 m 63.45,0 h 0.95 m 30.675,35 q -6.88848,-8.236719 -13.85,-16.125 m 13.55,93.3 q 0.34941,-2.25 0.125,-4.175 -0.34883,-2.9791 -1.825,-6.675 M 143.925,60.8 141,57.725 m 0,103.2 q 1.15137,-1.09941 2.3,-2.225 7.90801,-7.79883 15.6,-17.2 14.89258,-18.24336 16.575,-29.025 m -1.7,-10.85 Q 169.7375,91.550391 157.3,76.15 152,69.55 145.75,62.75 L 143.925,60.8 M 141,57.725 140.6,57.3 v 104 q 0.2002,-0.18926 0.4,-0.375 m 50.325,14.425 q 0.7543,0.33457 1.275,0.95 2.75,3.25 -8.85,10.45 -5.8,3.6 -12.15,6.55 l 13.15,-5.55 q 1.89375,-0.67949 3.5,-1.175 m 9.35,0.675 v 0.05 q -0.25,4.6 -6,10.8 -3.43887,3.70586 -5.85,5.225 M 171.9,182.9 l -0.025,0.025 q -0.13633,0.18281 -0.275,0.375 l 6.15,-3.8 M 91.5,0.3 h 6.75 m 11.65,197 h -4.75 M 38.25,0.3 h -5.9 m -19.65,197 h 6.4 M 48.7,0.3 H 38.25 M 0,0.3 h 32.35 m -13.25,197 h 86.05 m -92.45,0 H 0 m 136.45,0 h 0.15 l -1.075,3.525 M 91.5,0.3 H 80.7 m 86.075,207.725 1.175,-0.275 q 0.0643,-7.8e-4 0.125,0 l -1.3,0.275 -1.175,0.275"
       fill="none"
       stroke-linecap="round"
       stroke-linejoin="round"
       stroke-width="5"
       stroke="#000000"
       id="CHARACTERS_KhonjinFolder_khonjin_body_0_Layer0_0_1_STROKES" />
    <path
       d="m 114.85,9.35 12.7,3.05 m 20.75,5 2.875,0.7 m 26.15,13.75 -5.825,12.3 25,17 -0.175,0.575 m -0.825,2.65 -9.4,29.875 m 3.05,5.2 q 0.69414,1.26465 1.25,2.8 3.45,9.25 1.1,24.9 -0.0146,0.0877 -0.025,0.175 M 184,146.35 q -0.66953,0.67012 -1.4,1.2 -2.05,1.45 -4.3,1.7 l -1.625,-0.1 m 0.825,5.45 9,24.55 -0.5,0.025 m -7.025,0.45 -8.225,0.5 m -0.3,0.275 -3.775,18.925 M 74.9,212.15 q -1.2,0.005 -2.4,0 -12.6,-0.05 -27.55,-14.5 -3.109961,-3.01074 -6.075,-6.425 -1.503516,-1.73125 -2.975,-3.575 l -3.4,-4.5 -1.725,-32.7 m -8.975,-7.3 h -1.3 q -2.445703,0.48164 -5,-0.3 m -8.6,-8.9 Q 6.825,133.73008 6.75,133.5 m 0.7,-26.6 q 0.8662109,-2.45781 2,-4.3 L 10.5,101.15 9.975,100 M 9,97.9 -0.5,77.15 25,60.475 m 0.1,-0.7 L 14.5,50 M 12.575,48.225 12.5,48.15 21.375,41.5 M 55.85,15.55 61.675,11.25 73.25,2.575 m 1.5,-1.125 1.75,-1.3 38.35,9.2 m 33.45,8.05 -20.75,-5 m 23.625,5.7 29.325,7.05 -3.175,6.7 m 19,29.875 -0.825,2.65 m -9.6,30.475 0.2,-0.6 m -0.6,1.9 0.1,-0.325 0.3,-0.975 m 0.6,1.3 1.3,1.3 q 0.72949,0.894141 1.35,2 m 2.325,27.875 Q 189.37793,141.08789 184,146.35 m -6.5,8.25 -2,-5.45 m -65.725,58.95 56.725,-7.95 0.175,-0.825 m 3.775,-18.925 0.05,-0.25 0.25,-0.025 m 8.225,-0.5 7.025,-0.45 M 21.8,143.15 h 8.775 M 74.75,1.45 73.25,2.575 M 55.85,15.55 21.375,41.5 M 25,60.475 25.5,60.15 25.1,59.775 M 12.575,48.225 14.5,50 m -7.75,83.5 q -0.8976563,-2.78125 -1.25,-6.35 -1.1,-11.6 1.85,-19.95 0.049805,-0.14648 0.1,-0.3 M 9,97.9 9.975,100 m 5.525,42.85 q -0.893945,-0.27285 -1.8,-0.7 -1.358789,-0.6457 -2.5,-1.6 -2.8134766,-2.35664 -4.3,-6.6 m 23.875,16.5 -0.275,-5.3 m 44.4,67 q 11.481055,-0.14531 23.65,-2 6.75,-1 10.95,-2 l 0.275,-0.05"
       fill="none"
       stroke-linecap="round"
       stroke-linejoin="round"
       stroke-width="5"
       stroke="#000000"
       id="CHARACTERS_KhonjinFolder_khonjin_head_0_Layer0_0_1_STROKES" />
    <path
       d="m 70.1,54 q -6.9,8.75 -13.75,20 -13.6,22.5 -13.3,35 0,0.95 0.15,1.95 1.15,11.85 12.9,33.45 m 14.95,24.5 v 0.1 30 l 1.85,2.9 m 3.15,5.1 -0.05,0.45 q -0.05,0.8 -0.2,1.7 l -0.15,1 M 64.05,223 q -6.3,1.35 -6.75,-4.25 m -4.25,-1.5 -5,6.75 q -3.85,2.25 -8.7,3.4 -9.6,2.25 -14.3,-3.4 -4.3,-5.15 8.75,-12.5 m 1.1,-2.75 q -0.346484,0.0766 -0.7,0.15 -18.662891,3.92109 -22.45,-3.825 m -0.55,-4.8 q 1.481055,-3.44102 10,-3.925 6.463086,-0.3918 13.6,0.75 l 0.25,-0.1 m 1.125,-0.875 Q 29.3,192.75 23.45,188.9 11.7,181.15 16.05,178 q 4.4,-3.1 16.65,3.15 6.1,3.1 11.35,6.85 -1.6,-2.2 -3.15,-4.45 M 10.65,133.4 Q -0.65,110.6 0.05,99 1,82.75 36.1,40.25 50.25,23.15 64.25,8.2 M 75.35,2 h 5.7 M 64.25,8.2 Q 66.8,5.4 69.4,2.75 M 75.35,2 h -5.3 M 56.1,144.4 q 0.55,1.05 1.15,2.1 6.9,12.4 13.75,22.4 M 40.9,183.55 Q 31.15,169.6 21.5,153.25 15.1,142.45 10.65,133.4 M 71,168.9 q 0,0.05 0.05,0.1 m 1.85,32.9 3.15,5.1 m -0.65,4.1 q 0.1,-0.5 0.25,-0.95 m -18.35,8.6 q -0.1,-0.85 -0.05,-1.8 0.1,-2.4 0.95,-5.4 l 0.85,-2.55 -6,8.25 M 33.8,211.5 q 1.15,-0.65 2.45,-1.35 2.9,-1.5 6.3,-3 1.268359,-0.58125 2.6,-1.15 -5.001758,1.62637 -10.25,2.75 m -23.15,-3.675 q -0.02305,-0.0674 -0.05,-0.125 -1.312109,-2.78379 -0.5,-4.675 M 64.05,223 q 6.45,-1.4 9.6,-7.4 0.35,-0.75 0.7,-1.55 0.6,-1.45 1.05,-2.95 m -22.7,-7.975 q -2.102734,0.72227 -5.1,1.875 -1.249609,0.49512 -2.45,1 3.512109,-1.13633 6.9,-2.525 0.349414,-0.15938 0.7,-0.325 m -10.2,4 q 5.385156,-1.73574 9.5,-3.675"
       fill="none"
       stroke-linecap="round"
       stroke-linejoin="round"
       stroke-width="5"
       stroke="#000000"
       id="CHARACTERS_KhonjinFolder_khonjin_arm_0_Layer0_0_1_STROKES" />
    <path
       d="M 32,2 H 171 V 78 H 102 L 133,57 V 27 H 80 V 78 H 0 L 32,61 V 2 0"
       fill="none"
       stroke-linecap="round"
       stroke-linejoin="round"
       stroke-width="5"
       stroke="#000000"
       id="CHARACTERS_KhonjinFolder_khonjin_legs_0_Layer0_0_1_STROKES" />
  </defs>
  <g
     inkscape:label="Layer 1"
     id="layer2"
     inkscape:groupmode="layer">
    <g
       transform="matrix(6.8238232,0,0,6.8238232,504.57513,1397.86)"
       id="g59">
      <g
         id="g57">
        <use
           xlink:href="#CHARACTERS_KhonjinFolder_khonjin_body_0_Layer0_0_FILL"
           id="use53"
           x="0"
           y="0"
           width="100%"
           height="100%" />
        <use
           xlink:href="#CHARACTERS_KhonjinFolder_khonjin_body_0_Layer0_0_1_STROKES"
           id="use55"
           x="0"
           y="0"
           width="100%"
           height="100%" />
      </g>
    </g>
    <g
       transform="matrix(6.8238232,0,0,6.8238232,804.14097,1503.6293)"
       id="g65">
      <g
         id="g63">
        <use
           xlink:href="#CHARACTERS_KhonjinFolder_khonjin_tie_0_Layer0_0_FILL"
           id="use61"
           x="0"
           y="0"
           width="100%"
           height="100%" />
      </g>
    </g>
    <g
       transform="matrix(6.8238232,0,0,6.8238232,258.9175,16.035846)"
       id="g73">
      <g
         id="g71">
        <use
           xlink:href="#CHARACTERS_KhonjinFolder_khonjin_head_0_Layer0_0_FILL"
           id="use67"
           x="0"
           y="0"
           width="100%"
           height="100%" />
        <use
           xlink:href="#CHARACTERS_KhonjinFolder_khonjin_head_0_Layer0_0_1_STROKES"
           id="use69"
           x="0"
           y="0"
           width="100%"
           height="100%" />
      </g>
    </g>
    <g
       transform="matrix(6.8238232,0,0,6.8238232,650.60496,595.37844)"
       id="g79">
      <g
         id="g77">
        <use
           xlink:href="#CHARACTERS_KhonjinFolder_khonjin_eye_0_Layer0_0_FILL"
           id="use75"
           x="0"
           y="0"
           width="100%"
           height="100%" />
      </g>
    </g>
    <g
       transform="matrix(6.8238232,0,0,6.8238232,624.67442,697.0534)"
       id="g85">
      <g
         id="g83">
        <use
           xlink:href="#CHARACTERS_KhonjinFolder_khonjin_nose_0_Layer0_0_FILL"
           id="use81"
           x="0"
           y="0"
           width="100%"
           height="100%" />
      </g>
    </g>
    <g
       transform="matrix(6.8238232,0,0,6.8238232,17.012964,1386.2596)"
       id="g93">
      <g
         id="g91">
        <use
           xlink:href="#CHARACTERS_KhonjinFolder_khonjin_arm_0_Layer0_0_FILL"
           id="use87"
           x="0"
           y="0"
           width="100%"
           height="100%" />
        <use
           xlink:href="#CHARACTERS_KhonjinFolder_khonjin_arm_0_Layer0_0_1_STROKES"
           id="use89"
           x="0"
           y="0"
           width="100%"
           height="100%" />
      </g>
    </g>
    <g
       transform="matrix(6.8238232,0,0,6.8238232,283.48327,2730.5527)"
       id="g101">
      <g
         id="g99">
        <use
           xlink:href="#CHARACTERS_KhonjinFolder_khonjin_legs_0_Layer0_0_FILL"
           id="use95"
           x="0"
           y="0"
           width="100%"
           height="100%" />
        <use
           xlink:href="#CHARACTERS_KhonjinFolder_khonjin_legs_0_Layer0_0_1_STROKES"
           id="use97"
           x="0"
           y="0"
           width="100%"
           height="100%" />
      </g>
    </g>
  </g>
</svg>
